<?xml version="1.0" encoding="UTF-8"?><svg id="a" xmlns="http://www.w3.org/2000/svg" xmlns:xlink="http://www.w3.org/1999/xlink" viewBox="0 0 3000 578"><defs><style>.m{fill:url(#e);}.n{fill:url(#d);}.o{fill:url(#g);}.p{fill:url(#f);}.q{fill:url(#i);}.r{fill:url(#h);}.s{fill:url(#k);}.t{fill:url(#j);}.u{fill:url(#l);}.v{fill:url(#c);}.w{fill:url(#b);}</style><linearGradient id="b" x1="17.12" y1="300.08" x2="2916.81" y2="300.08" gradientTransform="matrix(1, 0, 0, 1, 0, 0)" gradientUnits="userSpaceOnUse"><stop offset="0" stop-color="#11998e"/><stop offset="1" stop-color="#38ef7d"/></linearGradient><linearGradient id="c" x1="17.12" y1="300.51" x2="2916.81" y2="300.51" xlink:href="#b"/><linearGradient id="d" y1="352.82" x2="2916.81" y2="352.82" xlink:href="#b"/><linearGradient id="e" x1="17.12" y1="352.28" x2="2916.81" y2="352.28" xlink:href="#b"/><linearGradient id="f" x1="17.12" y1="352.19" x2="2916.81" y2="352.19" xlink:href="#b"/><linearGradient id="g" y1="354.05" x2="2916.81" y2="354.05" xlink:href="#b"/><linearGradient id="h" x1="17.12" y1="280.97" x2="2916.81" y2="280.97" xlink:href="#b"/><linearGradient id="i" x1="17.12" y1="313.09" x2="2916.81" y2="313.09" xlink:href="#b"/><linearGradient id="j" x1="17.12" y1="348.67" x2="2916.81" y2="348.67" xlink:href="#b"/><linearGradient id="k" x1="17.12" y1="348.42" x2="2916.81" y2="348.42" xlink:href="#b"/><linearGradient id="l" y1="283.5" x2="2916.81" y2="283.5" xlink:href="#b"/></defs><g><path class="w" d="M2407.57,167.11c-16.39,21.34-30.43,39.61-45.01,58.59-8.95-6.54-17.53-12.79-26.11-19.07-15.56-11.39-32.96-18.69-52.13-19.8-8.91-.51-18.44,1.49-26.95,4.45-11.75,4.08-18.83,13.19-19.54,26.08-.71,12.93,6.97,21.41,17.49,26.24,22.33,10.24,45.64,18.39,67.78,29.01,19.3,9.26,40.07,17.89,55.78,31.77,48.38,42.72,38.54,124.26-17.18,157.23-61.94,36.65-144.76,25.16-199.3-27.37-5.25-5.06-11.74-8.84-18.47-13.82,18.01-21.68,33.15-39.9,49.37-59.43,4.31,5.17,8.31,9.58,11.88,14.31,24.29,32.24,73.03,47.13,108.79,33.45,12.18-4.66,20.19-12.41,21.55-25.7,1.34-13.08-3.17-24.07-15.14-29.9-17.58-8.57-35.98-15.46-53.66-23.85-20.79-9.86-42.52-18.54-61.49-31.25-55.9-37.46-54.78-119.91,1.4-157.33,45.97-30.62,94.56-29.25,143.09-7.69,19.78,8.79,37.59,21.99,57.85,34.11Z"/><path class="v" d="M1057.28,480.22c-25.12,0-47.87,.26-70.6-.33-2.79-.07-6.81-4.14-7.97-7.22-16.91-44.84-33.46-89.82-50.03-134.79-11.8-32.02-23.47-64.08-35.27-96.1-1-2.71-2.53-5.22-4.9-10.04-30.64,83.98-60.45,165.71-90.44,247.93h-76.05c10.57-28.03,20.79-55.24,31.1-82.42,33.67-88.72,67.5-177.37,100.84-266.21,2.97-7.91,6.66-10.62,14.86-10.26,14.26,.62,28.57,.45,42.84,.05,6.38-.18,9.67,2.06,11.94,8.07,35.53,93.96,71.24,187.86,106.95,281.75,8.56,22.51,17.27,44.96,26.74,69.57Z"/><path class="n" d="M2066.82,234.91c.35-4.67,.63-8.45,.97-13.06h67.38V479.55h-66.78c-.65-2.44-1.45-5.44-2.28-8.54-75.17,32.25-138.39-1.75-167.01-43.84-30.69-45.13-30.01-110.85,2.18-151.54,41.85-52.91,97.71-66.96,165.53-40.74Zm-58.5,55.34c-34.34,.08-63.14,28.18-63.33,61.79-.2,34.92,28.81,63.67,64.01,63.44,32.97-.22,61.04-28.71,61.47-62.38,.43-33.72-28.45-62.93-62.14-62.85Z"/><path class="m" d="M1587.23,483.52c-72.29,2.19-132.28-55.6-134.45-129.52-2-68.04,56.12-129.89,123.02-132.87,76.88-3.43,137.29,53.85,140.07,126.13,2.84,73.81-54.41,134.01-128.65,136.26Zm-65.45-131.39c0,34.17,28.17,62.54,62.37,62.82,33.75,.28,62.61-28.29,62.96-62.32,.35-33.99-28.19-62.69-62.42-62.76-34.31-.07-62.9,28.23-62.91,62.26Z"/><path class="p" d="M2681.64,351.72c.51,72.86-56.64,130.84-129.57,131.43-73.74,.6-132.4-56.35-133.06-129.18-.66-72.97,57.26-132.27,129.67-132.75,74.31-.49,132.44,56.57,132.95,130.5Zm-130.8-61.69c-34.89-.16-62.87,27.76-62.94,62.78-.06,33.36,27.91,61.69,61.54,62.33,33.79,.65,64-29.12,63.61-62.68-.39-34.44-28.13-62.28-62.21-62.43Z"/><path class="o" d="M1212.11,224.14h68.08c.29,2.21,.74,4.02,.74,5.83,.04,46.26,.7,92.54-.17,138.79-.82,43.14-19.28,77.73-57.39,98.99-40.17,22.42-81.34,21.89-120.46-3.35-34.19-22.06-51.27-54.63-51.86-95.04-.68-46.64-.17-93.29-.14-139.94,0-1.47,.5-2.94,.88-5.06h66.9c.21,4.57,.59,9.03,.6,13.49,.05,42.79-.21,85.59,.12,128.38,.25,32.2,26.47,53.75,56.84,47.4,20.86-4.37,35.72-23.28,35.81-46.32,.17-43.18,.05-86.36,.05-129.54,0-4.17,0-8.34,0-13.61Z"/><path class="r" d="M2776.68,479.8h-67.22c-.46-2.46-1.22-4.61-1.21-6.76,.13-87.43-1.91-174.94,1.25-262.26,2.39-66.18,56.56-121.88,128.99-128.48,3.39-.31,6.84-.04,11.71-.04,0,21.36,.31,42.05-.44,62.7-.08,2.27-6.09,5.79-9.66,6.24-35.73,4.52-64.56,38.04-61.68,73.64h70.96v63.99c-13.42,0-27.1,0-40.78,0q-31.91,0-31.91,31.78c0,48.15,0,96.3,0,144.45v14.75Z"/><path class="q" d="M2857.93,163.76c21.83-7.24,43.94-14.56,67.72-22.45v82.23h72.83v64.24h-73.58c1.24,25.53-.11,50.38,4.26,74.19,5.53,30.13,30.8,49.91,61.82,53.71,5.48,.67,8.37,2.11,8.29,8.25-.25,19.63-.09,39.26-.09,59.76-15.85,3.22-30.29-.84-44.35-5.5-57.36-19.04-96.32-70.76-97.29-131.08-.96-59.71-.32-119.44-.35-179.17,0-1.12,.39-2.24,.75-4.19Z"/><path class="t" d="M1382.67,479.81h-69.04c0-6.43,0-12.45,0-18.47,0-31.6-.08-63.2,.02-94.79,.25-80.46,65.65-147.19,146.04-149.02,.69-.02,1.39,.58,2.86,1.23v64.79c-12.94,4.41-26.01,7.06-37.28,13.06-28.2,15-42.3,39.45-42.53,71.41-.24,32.75-.05,65.51-.06,98.26,0,4.17,0,8.34,0,13.53Z"/><path class="s" d="M1887.52,217.25v66.93c-11.06,3.18-22.6,4.97-32.78,9.7-32.85,15.27-47.38,42.61-47.79,77.9-.37,31.58-.08,63.17-.08,94.76,0,4.15,0,8.3,0,13.05h-67.41c-.38-2.52-1.11-5.06-1.1-7.59,.19-38.89-.69-77.82,.98-116.65,3.06-71.06,64.88-132.48,136.66-137.13,3.42-.22,6.83-.58,11.52-.98Z"/></g><path class="u" d="M225.14,0h88.1l223.36,394.87-110.71,.96L272.81,125.57l-121.23,253.93s91.16-13.69,163.33,24.13c72.17,37.82,135.35,64.38,159.34,65.39,23.99,1.01,65.9-9.3,82.26-19.63l67.65,63.75s-41.75,49.3-115.99,53.51c-74.24,4.21-154.86-30.94-178.86-45.12-24.01-14.18-101.06-51.46-135.18-48.3-34.12,3.15-82.58,11.72-111.55,47.93L.73,470.05,225.14,0Z"/></svg>