<svg xmlns="http://www.w3.org/2000/svg" width="13.845" height="13.667" viewBox="0 0 13.845 13.667">
  <g id="drawing" transform="translate(0 -3.292)">
    <path id="패스_982" data-name="패스 982" d="M176,258.708v4.6a1.082,1.082,0,1,0,2.163,0v-4.6Z" transform="translate(-171.241 -248.51)" fill="#ffcdbe"/>
    <path id="패스_983" data-name="패스 983" d="M96,258.708v4.6a1.082,1.082,0,1,0,2.163,0v-4.6Z" transform="translate(-93.404 -248.51)" fill="#ffcdbe"/>
    <path id="패스_984" data-name="패스 984" d="M99.463,125.1l-3.7-1.768-1.458.913-.018,3.263h1.432a.135.135,0,0,1,.116.2l-.532.9H92v2.163h3.745a3.759,3.759,0,0,0,3.738,0h3.469a.406.406,0,0,0,.406-.406v-4.867a.406.406,0,0,0-.406-.406Z" transform="translate(-89.512 -116.796)" fill="#ffdecf"/>
    <path id="패스_985" data-name="패스 985" d="M256,135.171V142.6a3.758,3.758,0,0,0,3.048-.308h3.469a.406.406,0,0,0,.406-.406v-4.867a.406.406,0,0,0-.406-.406h-3.488Z" transform="translate(-249.077 -128.313)" fill="#ffcdbe"/>
    <g id="그룹_1283" data-name="그룹 1283" transform="translate(0 5.799)">
      <path id="패스_986" data-name="패스 986" d="M6.977,97.247,4.943,96.12a1.489,1.489,0,0,0-1.538.24l-1,.85a3.1,3.1,0,0,0-.7.856L.129,100.9a1.078,1.078,0,0,0,1.884,1.05Z" transform="translate(0 -96.005)" fill="#ffdecf"/>
    </g>
    <path id="패스_987" data-name="패스 987" d="M9.977,70.977l-1.221-.049L3.821,79.475a.4.4,0,0,0-.039.091l-.767,2.68a.406.406,0,0,0,.682.393l1.937-2a.406.406,0,0,0,.06-.079L10.63,72.01Z" transform="translate(-2.918 -65.807)" fill="#5f5acf"/>
    <path id="패스_988" data-name="패스 988" d="M17.326,72.744h0L10.552,84.476a.4.4,0,0,0,.494-.069l1.937-2a.406.406,0,0,0,.06-.079l4.935-8.548Z" transform="translate(-10.266 -67.574)" fill="#453d83"/>
    <path id="패스_989" data-name="패스 989" d="M217.789,6.2l-1.873-1.082.743-1.288a1.082,1.082,0,1,1,1.873,1.082Z" transform="translate(-210.077 0)" fill="#fff68e"/>
    <path id="패스_990" data-name="패스 990" d="M252.233,10.135a1.082,1.082,0,0,0-.4-1.477l-1.284,2.225.937.541Z" transform="translate(-243.778 -5.221)" fill="#ffda44"/>
    <path id="패스_991" data-name="패스 991" d="M56.387,318.708H53.082a1.082,1.082,0,1,0,0,2.163h3.745" transform="translate(-50.594 -306.887)" fill="#ffdecf"/>
  </g>
</svg>
